<svg xmlns="http://www.w3.org/2000/svg" viewBox="0 0 512 512" width="512" height="512">
  <defs>
    <linearGradient id="bg" x1="0" y1="0" x2="1" y2="1">
      <stop offset="0" stop-color="#226a54"/>
      <stop offset="1" stop-color="#14493a"/>
    </linearGradient>
  </defs>
  <rect width="512" height="512" rx="112" fill="url(#bg)"/>
  <g transform="translate(140 104)">
    <path d="M16 0h168l48 48v312a16 16 0 0 1-16 16H16a16 16 0 0 1-16-16V16A16 16 0 0 1 16 0z" fill="#fbf6ec"/>
    <path d="M184 0l48 48h-48z" fill="#cfe0d4"/>
    <g fill="#1d5b48">
      <rect x="36" y="92" width="160" height="16" rx="8"/>
      <rect x="36" y="136" width="160" height="16" rx="8"/>
      <rect x="36" y="180" width="104" height="16" rx="8"/>
    </g>
    <g fill="#9bb6a4">
      <rect x="36" y="248" width="160" height="14" rx="7"/>
      <rect x="36" y="284" width="160" height="14" rx="7"/>
    </g>
    <rect x="116" y="316" width="80" height="20" rx="10" fill="#c79a3e"/>
  </g>
</svg>
